<svg width="482" height="482" viewBox="0 0 482 482" fill="none" xmlns="http://www.w3.org/2000/svg">
<path d="M204.624 216.053H251.357V226.284L222.294 247.325H251.357V257.555H204.624V247.325L233.745 226.284H204.624V216.053ZM301.392 216.053V225.47H270.411V232.096H300.229V241.512H270.411V248.139H301.392V257.555H258.379V216.053H301.392ZM349.827 240.582C352.113 240.815 353.876 241.609 355.116 242.966C356.356 244.283 356.976 246.104 356.976 248.429V257.555H345.002V250.696C345.002 249.34 344.867 248.333 344.595 247.674C344.324 246.976 343.84 246.492 343.142 246.221C342.445 245.911 341.399 245.756 340.004 245.756H320.59V257.555H308.557V216.053H340.41C345.874 216.053 350.04 217.158 352.907 219.367C355.775 221.537 357.209 224.792 357.209 229.132C357.209 234.944 354.748 238.761 349.827 240.582ZM320.59 225.877V235.932H337.446C339.074 235.932 340.352 235.855 341.282 235.7C342.212 235.545 342.987 235.099 343.607 234.363C344.266 233.627 344.595 232.484 344.595 230.934C344.595 229.345 344.266 228.202 343.607 227.504C342.987 226.768 342.212 226.322 341.282 226.167C340.352 225.974 339.074 225.877 337.446 225.877H320.59ZM392.221 258.718C383.541 258.718 376.876 256.8 372.226 252.963C367.576 249.127 365.251 243.721 365.251 236.746C365.251 229.81 367.576 224.443 372.226 220.645C376.876 216.809 383.541 214.891 392.221 214.891C397.995 214.891 402.897 215.763 406.927 217.507C410.957 219.212 413.999 221.711 416.052 225.005C418.145 228.26 419.191 232.174 419.191 236.746C419.191 241.357 418.145 245.31 416.052 248.604C413.999 251.859 410.957 254.358 406.927 256.102C402.897 257.846 397.995 258.718 392.221 258.718ZM392.221 248.488C401.831 248.488 406.636 244.574 406.636 236.746C406.636 228.996 401.831 225.121 392.221 225.121C382.649 225.121 377.864 228.996 377.864 236.746C377.864 244.574 382.649 248.488 392.221 248.488Z" fill="white"/>
<mask id="path-2-inside-1_12_1857" fill="white">
<path d="M376.25 323.58C358.819 352.128 332.802 374.428 301.924 387.288C271.046 400.148 236.891 402.907 204.349 395.17C171.807 387.434 142.548 369.599 120.76 344.22C98.973 318.84 85.7752 287.217 83.0568 253.879C80.3383 220.541 88.2386 187.197 105.626 158.623C123.014 130.049 148.998 107.709 179.856 94.8034C210.715 81.8974 244.866 79.0868 277.419 86.774C309.973 94.4612 339.259 112.252 361.084 137.599L348.55 148.392C329.002 125.691 302.773 109.757 273.618 102.872C244.462 95.9876 213.876 98.5048 186.238 110.064C158.601 121.623 135.33 141.63 119.757 167.222C104.184 192.813 97.1085 222.676 99.5432 252.534C101.978 282.393 113.798 310.715 133.311 333.445C152.824 356.176 179.029 372.149 208.174 379.078C237.319 386.007 267.91 383.535 295.564 372.018C323.219 360.501 346.521 340.528 362.132 314.96L376.25 323.58Z"/>
</mask>
<path d="M376.25 323.58C358.819 352.128 332.802 374.428 301.924 387.288C271.046 400.148 236.891 402.907 204.349 395.17C171.807 387.434 142.548 369.599 120.76 344.22C98.973 318.84 85.7752 287.217 83.0568 253.879C80.3383 220.541 88.2386 187.197 105.626 158.623C123.014 130.049 148.998 107.709 179.856 94.8034C210.715 81.8974 244.866 79.0868 277.419 86.774C309.973 94.4612 339.259 112.252 361.084 137.599L348.55 148.392C329.002 125.691 302.773 109.757 273.618 102.872C244.462 95.9876 213.876 98.5048 186.238 110.064C158.601 121.623 135.33 141.63 119.757 167.222C104.184 192.813 97.1085 222.676 99.5432 252.534C101.978 282.393 113.798 310.715 133.311 333.445C152.824 356.176 179.029 372.149 208.174 379.078C237.319 386.007 267.91 383.535 295.564 372.018C323.219 360.501 346.521 340.528 362.132 314.96L376.25 323.58Z" stroke="white" stroke-width="38.3334" mask="url(#path-2-inside-1_12_1857)"/>
<path d="M378.633 307.859L372.26 353.745L335.708 325.283L378.633 307.859Z" fill="white"/>
</svg>
